{
    "asset" : {
        "generator" : "Khronos glTF Blender I/O v1.6.16",
        "version" : "2.0"
    },
    "scene" : 0,
    "scenes" : [
        {
            "name" : "Scene",
            "nodes" : [
                0
            ]
        }
    ],
    "nodes" : [
        {
            "mesh" : 0,
            "name" : "Cube"
        }
    ],
    "materials" : [
        {
            "doubleSided" : true,
            "name" : "Ship",
            "pbrMetallicRoughness" : {
                "baseColorFactor" : [
                    0.1412593573331833,
                    0.1412593573331833,
                    0.1412593573331833,
                    1
                ],
                "metallicFactor" : 0.949999988079071,
                "roughnessFactor" : 0.5
            }
        },
        {
            "doubleSided" : true,
            "name" : "Windows",
            "pbrMetallicRoughness" : {
                "baseColorFactor" : [
                    0,
                    0.2974250614643097,
                    0.8000000715255737,
                    1
                ],
                "metallicFactor" : 0,
                "roughnessFactor" : 0.5
            }
        },
        {
            "doubleSided" : true,
            "name" : "Trunk",
            "pbrMetallicRoughness" : {
                "baseColorFactor" : [
                    0.5542967319488525,
                    0.5542967319488525,
                    0.5542967319488525,
                    1
                ],
                "metallicFactor" : 0.949999988079071,
                "roughnessFactor" : 0.5
            }
        }
    ],
    "meshes" : [
        {
            "name" : "Cube.001",
            "primitives" : [
                {
                    "attributes" : {
                        "POSITION" : 0,
                        "NORMAL" : 1,
                        "TEXCOORD_0" : 2
                    },
                    "indices" : 3,
                    "material" : 0
                },
                {
                    "attributes" : {
                        "POSITION" : 4,
                        "NORMAL" : 5,
                        "TEXCOORD_0" : 6
                    },
                    "indices" : 7,
                    "material" : 1
                },
                {
                    "attributes" : {
                        "POSITION" : 8,
                        "NORMAL" : 9,
                        "TEXCOORD_0" : 10
                    },
                    "indices" : 11,
                    "material" : 2
                }
            ]
        }
    ],
    "accessors" : [
        {
            "bufferView" : 0,
            "componentType" : 5126,
            "count" : 684,
            "max" : [
                3.139953374862671,
                1.3593707084655762,
                2.097536563873291
            ],
            "min" : [
                -3.139953374862671,
                -1.0363800525665283,
                -2.522351026535034
            ],
            "type" : "VEC3"
        },
        {
            "bufferView" : 1,
            "componentType" : 5126,
            "count" : 684,
            "type" : "VEC3"
        },
        {
            "bufferView" : 2,
            "componentType" : 5126,
            "count" : 684,
            "type" : "VEC2"
        },
        {
            "bufferView" : 3,
            "componentType" : 5123,
            "count" : 1440,
            "type" : "SCALAR"
        },
        {
            "bufferView" : 4,
            "componentType" : 5126,
            "count" : 26,
            "max" : [
                1,
                1.0594216585159302,
                -1
            ],
            "min" : [
                -1,
                0.005596369504928589,
                -2.522351026535034
            ],
            "type" : "VEC3"
        },
        {
            "bufferView" : 5,
            "componentType" : 5126,
            "count" : 26,
            "type" : "VEC3"
        },
        {
            "bufferView" : 6,
            "componentType" : 5126,
            "count" : 26,
            "type" : "VEC2"
        },
        {
            "bufferView" : 7,
            "componentType" : 5123,
            "count" : 48,
            "type" : "SCALAR"
        },
        {
            "bufferView" : 8,
            "componentType" : 5126,
            "count" : 30,
            "max" : [
                0.8389533162117004,
                0.8757333159446716,
                2.094027519226074
            ],
            "min" : [
                -0.8389533162117004,
                -0.31403017044067383,
                2.0262017250061035
            ],
            "type" : "VEC3"
        },
        {
            "bufferView" : 9,
            "componentType" : 5126,
            "count" : 30,
            "type" : "VEC3"
        },
        {
            "bufferView" : 10,
            "componentType" : 5126,
            "count" : 30,
            "type" : "VEC2"
        },
        {
            "bufferView" : 11,
            "componentType" : 5123,
            "count" : 48,
            "type" : "SCALAR"
        }
    ],
    "bufferViews" : [
        {
            "buffer" : 0,
            "byteLength" : 8208,
            "byteOffset" : 0
        },
        {
            "buffer" : 0,
            "byteLength" : 8208,
            "byteOffset" : 8208
        },
        {
            "buffer" : 0,
            "byteLength" : 5472,
            "byteOffset" : 16416
        },
        {
            "buffer" : 0,
            "byteLength" : 2880,
            "byteOffset" : 21888
        },
        {
            "buffer" : 0,
            "byteLength" : 312,
            "byteOffset" : 24768
        },
        {
            "buffer" : 0,
            "byteLength" : 312,
            "byteOffset" : 25080
        },
        {
            "buffer" : 0,
            "byteLength" : 208,
            "byteOffset" : 25392
        },
        {
            "buffer" : 0,
            "byteLength" : 96,
            "byteOffset" : 25600
        },
        {
            "buffer" : 0,
            "byteLength" : 360,
            "byteOffset" : 25696
        },
        {
            "buffer" : 0,
            "byteLength" : 360,
            "byteOffset" : 26056
        },
        {
            "buffer" : 0,
            "byteLength" : 240,
            "byteOffset" : 26416
        },
        {
            "buffer" : 0,
            "byteLength" : 96,
            "byteOffset" : 26656
        }
    ],
    "buffers" : [
        {
            "byteLength" : 26752,
            "uri" : "data:application/octet-stream;base64,"
        }
    ]
}
