{
    "asset" : {
        "generator" : "Khronos glTF Blender I/O v1.6.16",
        "version" : "2.0"
    },
    "scene" : 0,
    "scenes" : [
        {
            "name" : "Scene",
            "nodes" : [
                0
            ]
        }
    ],
    "nodes" : [
        {
            "mesh" : 0,
            "name" : "Fuselage"
        }
    ],
    "materials" : [
        {
            "doubleSided" : true,
            "name" : "Shell",
            "pbrMetallicRoughness" : {
                "baseColorFactor" : [
                    0.8000000715255737,
                    0.10975430905818939,
                    0,
                    1
                ],
                "metallicFactor" : 0.75,
                "roughnessFactor" : 0.5
            }
        },
        {
            "doubleSided" : true,
            "name" : "Windows",
            "pbrMetallicRoughness" : {
                "baseColorFactor" : [
                    0.001943710958585143,
                    0.012330502271652222,
                    0.8000000715255737,
                    1
                ],
                "metallicFactor" : 0,
                "roughnessFactor" : 0.5
            }
        },
        {
            "doubleSided" : true,
            "name" : "Nose",
            "pbrMetallicRoughness" : {
                "metallicFactor" : 0.75,
                "roughnessFactor" : 0.5
            }
        }
    ],
    "meshes" : [
        {
            "name" : "Cube.001",
            "primitives" : [
                {
                    "attributes" : {
                        "POSITION" : 0,
                        "NORMAL" : 1,
                        "TEXCOORD_0" : 2
                    },
                    "indices" : 3,
                    "material" : 0
                },
                {
                    "attributes" : {
                        "POSITION" : 4,
                        "NORMAL" : 5,
                        "TEXCOORD_0" : 6
                    },
                    "indices" : 7,
                    "material" : 1
                },
                {
                    "attributes" : {
                        "POSITION" : 8,
                        "NORMAL" : 9,
                        "TEXCOORD_0" : 10
                    },
                    "indices" : 11,
                    "material" : 2
                }
            ]
        }
    ],
    "accessors" : [
        {
            "bufferView" : 0,
            "componentType" : 5126,
            "count" : 124,
            "max" : [
                1,
                1,
                4.40195369720459
            ],
            "min" : [
                -1,
                -1,
                -4.950674057006836
            ],
            "type" : "VEC3"
        },
        {
            "bufferView" : 1,
            "componentType" : 5126,
            "count" : 124,
            "type" : "VEC3"
        },
        {
            "bufferView" : 2,
            "componentType" : 5126,
            "count" : 124,
            "type" : "VEC2"
        },
        {
            "bufferView" : 3,
            "componentType" : 5123,
            "count" : 246,
            "type" : "SCALAR"
        },
        {
            "bufferView" : 4,
            "componentType" : 5126,
            "count" : 12,
            "max" : [
                1,
                1,
                -1.6856995820999146
            ],
            "min" : [
                -1,
                -0.426003634929657,
                -4.950674057006836
            ],
            "type" : "VEC3"
        },
        {
            "bufferView" : 5,
            "componentType" : 5126,
            "count" : 12,
            "type" : "VEC3"
        },
        {
            "bufferView" : 6,
            "componentType" : 5126,
            "count" : 12,
            "type" : "VEC2"
        },
        {
            "bufferView" : 7,
            "componentType" : 5123,
            "count" : 18,
            "type" : "SCALAR"
        },
        {
            "bufferView" : 8,
            "componentType" : 5126,
            "count" : 30,
            "max" : [
                0.5213199257850647,
                0.10437865555286407,
                -4.950674057006836
            ],
            "min" : [
                -0.5213199257850647,
                -0.9382612705230713,
                -7.303317070007324
            ],
            "type" : "VEC3"
        },
        {
            "bufferView" : 9,
            "componentType" : 5126,
            "count" : 30,
            "type" : "VEC3"
        },
        {
            "bufferView" : 10,
            "componentType" : 5126,
            "count" : 30,
            "type" : "VEC2"
        },
        {
            "bufferView" : 11,
            "componentType" : 5123,
            "count" : 48,
            "type" : "SCALAR"
        }
    ],
    "bufferViews" : [
        {
            "buffer" : 0,
            "byteLength" : 1488,
            "byteOffset" : 0
        },
        {
            "buffer" : 0,
            "byteLength" : 1488,
            "byteOffset" : 1488
        },
        {
            "buffer" : 0,
            "byteLength" : 992,
            "byteOffset" : 2976
        },
        {
            "buffer" : 0,
            "byteLength" : 492,
            "byteOffset" : 3968
        },
        {
            "buffer" : 0,
            "byteLength" : 144,
            "byteOffset" : 4460
        },
        {
            "buffer" : 0,
            "byteLength" : 144,
            "byteOffset" : 4604
        },
        {
            "buffer" : 0,
            "byteLength" : 96,
            "byteOffset" : 4748
        },
        {
            "buffer" : 0,
            "byteLength" : 36,
            "byteOffset" : 4844
        },
        {
            "buffer" : 0,
            "byteLength" : 360,
            "byteOffset" : 4880
        },
        {
            "buffer" : 0,
            "byteLength" : 360,
            "byteOffset" : 5240
        },
        {
            "buffer" : 0,
            "byteLength" : 240,
            "byteOffset" : 5600
        },
        {
            "buffer" : 0,
            "byteLength" : 96,
            "byteOffset" : 5840
        }
    ],
    "buffers" : [
        {
            "byteLength" : 5936,
            "uri" : "data:application/octet-stream;base64,"
        }
    ]
}
